<svg width="24" height="28" viewBox="0 0 24 28" fill="none" xmlns="http://www.w3.org/2000/svg">
    <path d="M12.0066 0.666656C15.5799 0.666656 18.5176 3.47454 18.6667 7.03242H18.6318C18.636 7.13584 18.6161 7.23883 18.5738 7.33332H18.7819C20.4046 7.33332 22.1038 8.458 22.7851 11.1731L22.8592 11.4934L23.8843 19.753C24.6221 25.021 21.7399 27.2364 17.8083 27.3302L17.5446 27.3333H6.49137C2.4957 27.3333 -0.583274 25.8773 0.0937078 20.1114L0.139873 19.753L1.17685 11.4934C1.68819 8.56957 3.40481 7.41632 5.05883 7.33767L5.24228 7.33332H5.34652C5.32894 7.23379 5.32894 7.13196 5.34652 7.03242C5.49563 3.47454 8.43333 0.666656 12.0066 0.666656ZM8.12933 11.7724C7.47852 11.7724 6.95094 12.3154 6.95094 12.9852C6.95094 13.6551 7.47852 14.1981 8.12933 14.1981C8.78013 14.1981 9.30772 13.6551 9.30772 12.9852L9.29853 12.8331C9.22582 12.2351 8.73007 11.7724 8.12933 11.7724ZM15.8478 11.7724C15.197 11.7724 14.6694 12.3154 14.6694 12.9852C14.6694 13.6551 15.197 14.1981 15.8478 14.1981C16.4986 14.1981 17.0261 13.6551 17.0261 12.9852C17.0261 12.3154 16.4986 11.7724 15.8478 11.7724ZM11.9543 2.40317C9.38885 2.40317 7.30912 4.47576 7.30912 7.03242C7.3267 7.13196 7.3267 7.23379 7.30912 7.33332H16.6576C16.6205 7.23725 16.6008 7.13536 16.5995 7.03242C16.5995 4.47576 14.5198 2.40317 11.9543 2.40317Z" fill="#EFF2F4"/>
</svg>
