<svg width="30" height="22" viewBox="0 0 30 22" fill="none" xmlns="http://www.w3.org/2000/svg">
    <path d="M14.932 14.3862C19.5069 14.3862 23.4133 15.1114 23.4133 18.0138C23.4133 20.915 19.532 21.6667 14.932 21.6667C10.3571 21.6667 6.45076 20.9414 6.45076 18.0402C6.45076 15.1379 10.332 14.3862 14.932 14.3862ZM22.2467 12.6385C23.9958 12.6061 25.8761 12.8462 26.5709 13.0168C28.043 13.3061 29.0112 13.8969 29.4123 14.7555C29.7514 15.4604 29.7514 16.2782 29.4123 16.9818C28.7987 18.3135 26.8205 18.741 26.0516 18.8515C25.8928 18.8755 25.7651 18.7374 25.7818 18.5777C26.1746 14.8876 23.0502 13.138 22.242 12.7358C22.2073 12.7178 22.2002 12.6901 22.2038 12.6733C22.2061 12.6613 22.2205 12.6421 22.2467 12.6385ZM7.42476 12.636L7.75411 12.639C7.78038 12.6426 7.79351 12.6618 7.7959 12.6726C7.79948 12.6906 7.79232 12.717 7.75889 12.7362C6.94944 13.1385 3.82508 14.8881 4.21787 18.577C4.23458 18.7379 4.10803 18.8748 3.94925 18.852C3.1804 18.7415 1.20215 18.314 0.588503 16.9823C0.24825 16.2774 0.24825 15.4609 0.588503 14.756C0.989643 13.8974 1.95668 13.3066 3.42872 13.016C4.12475 12.8467 6.0039 12.6066 7.75411 12.639L7.42476 12.636ZM14.932 0.333328C18.0468 0.333328 20.5444 2.84302 20.5444 5.97713C20.5444 9.11004 18.0468 11.6221 14.932 11.6221C11.8172 11.6221 9.31963 9.11004 9.31963 5.97713C9.31963 2.84302 11.8172 0.333328 14.932 0.333328ZM22.5512 1.27452C25.5597 1.27452 27.9224 4.12164 27.1177 7.29298C26.5745 9.42802 24.6082 10.8462 22.4175 10.7885C22.1978 10.7825 21.9817 10.7621 21.7728 10.7261C21.6212 10.6997 21.5447 10.528 21.6307 10.4007C22.4664 9.16384 22.9428 7.67603 22.9428 6.07896C22.9428 4.41224 22.4222 2.85839 21.5185 1.58433C21.4898 1.5447 21.4683 1.48346 21.497 1.43783C21.5209 1.40061 21.565 1.38139 21.6068 1.37179C21.9113 1.30935 22.2241 1.27452 22.5512 1.27452ZM7.44788 1.2744C7.775 1.2744 8.0878 1.30923 8.39343 1.37167C8.43402 1.38127 8.47939 1.40169 8.50327 1.43771C8.53072 1.48334 8.51043 1.54458 8.48178 1.58421C7.57802 2.85827 7.05749 4.41212 7.05749 6.07884C7.05749 7.67591 7.53384 9.16372 8.36955 10.4006C8.45551 10.5278 8.3791 10.6996 8.22748 10.726C8.01736 10.7632 7.80246 10.7824 7.58279 10.7884C5.39204 10.8461 3.42574 9.4279 2.88252 7.29286C2.07666 4.12152 4.43933 1.2744 7.44788 1.2744Z" fill="#EFF2F4"/>
</svg>
